<?xml version="1.0" encoding="UTF-8"?>
<svg width="315px" height="112px" viewBox="0 0 315 112" version="1.1" xmlns="http://www.w3.org/2000/svg" xmlns:xlink="http://www.w3.org/1999/xlink">
    <title>duduk</title>
    <defs>
        <polygon id="path-1" points="0 0 71 0 71 25 0 25"></polygon>
    </defs>
    <g id="Page-1" stroke="none" stroke-width="1" fill="none" fill-rule="evenodd">
        <g id="duduk">
            <text id="PERSIAN-BABA" fill="#000000" fill-rule="nonzero" font-family="Arial-BoldMT, Arial" font-size="50" font-weight="bold">
                <tspan x="0" y="45">PERSIAN </tspan>
                <tspan x="0" y="101">BABA</tspan>
            </text>
            <g id="Group-3" transform="translate(149.000000, 73.000000)">
                <mask id="mask-2" fill="white">
                    <use xlink:href="#path-1"></use>
                </mask>
                <g id="Clip-2"></g>
                <path d="M52.9326636,3.44856142 C52.9326636,3.44856142 47.3129338,4.23173386 43.5376064,3.44856142 C36.9809033,2.08806549 35.5416784,0 35.5416784,0 C35.5416784,0 34.2681122,2.07741813 27.6206661,3.44856142 C23.8231806,4.23173386 18.1717963,3.44856142 18.1717963,3.44856142 C8.13626299,3.44856142 0,13.0974352 0,25 C0.970738159,24.4427882 3.19604987,20.8297842 4.10769962,20.3956086 C5.10270624,19.9212095 4.77771998,22.6386523 5.70730729,22.2932046 C6.44696756,22.0163733 8.10038788,19.2847341 8.80206274,19.0788851 C9.47735886,18.8813174 9.20196466,21.2059909 9.84349597,21.0640261 C10.546226,20.9078648 12.2450178,18.5204903 12.9097624,18.4211149 C13.7211729,18.2992618 13.4879847,20.4772383 14.2466376,20.4192694 C14.9694155,20.3648495 16.3379453,18.4364944 17.0164068,18.4211149 C17.8278173,18.4033693 17.9386081,20.3045145 18.6930405,20.3139788 C19.504451,20.3246262 21.5430011,18.4163827 22.2974335,18.4211149 C23.1985317,18.4270301 22.8039055,20.3411887 23.6374742,20.2784876 C24.5026973,20.2122374 26.1835515,17.3185217 26.9917966,17.1055745 C27.7916004,16.8949934 27.7198502,19.3663638 28.4806135,18.9392864 C30.177295,17.9857562 31.7990608,16.4040318 33.4345435,13.7942457 C34.7925218,11.6280996 35.6250353,7.84473784 35.6250353,7.84473784 C35.6250353,7.84473784 36.3995155,11.6174522 37.7553835,13.7942457 C39.3824251,16.4040318 40.9946945,17.9857562 42.6818797,18.9392864 C43.4384223,19.3663638 43.3666721,16.8949934 44.1622553,17.1055745 C44.9662798,17.3185217 46.6376377,20.2122374 47.497585,20.2784876 C48.3258779,20.3411887 47.9344172,18.4270301 48.8302397,18.4211149 C49.5804515,18.4163827 51.6063398,20.3246262 52.4135297,20.3139788 C53.1637415,20.3045145 53.2734771,18.4033693 54.080667,18.4211149 C54.7549079,18.4364944 56.1171068,20.3648495 56.8346089,20.4192694 C57.5890413,20.4772383 57.3579634,18.2992618 58.1640981,18.4211149 C58.8246222,18.5204903 60.5139176,20.9078648 61.2134821,21.0640261 C61.8507928,21.2059909 61.577509,18.8813174 62.2485845,19.0788851 C62.9460387,19.2847341 64.5899627,22.0163733 65.3254024,22.2932046 C66.2497139,22.6386523 65.926838,19.9212095 66.9155137,20.3956086 C67.8229428,20.8297842 70.0345376,24.4427882 71,25 C71,13.0974352 62.9101636,3.44856142 52.9326636,3.44856142" id="Fill-1" fill="#41291B" mask="url(#mask-2)"></path>
            </g>
        </g>
    </g>
</svg>